<svg width="48" height="48" viewBox="0 0 48 48" fill="none" xmlns="http://www.w3.org/2000/svg">
<rect width="48" height="48" rx="24" fill="#E6E8EC"/>
<path fill-rule="evenodd" clip-rule="evenodd" d="M15 17C15 14.7909 16.7909 13 19 13H27.3431C28.404 13 29.4214 13.4214 30.1716 14.1716L31.8284 15.8284C32.5786 16.5786 33 17.596 33 18.6569V31C33 33.2091 31.2091 35 29 35H19C16.7909 35 15 33.2091 15 31V17ZM31 20V31C31 32.1046 30.1046 33 29 33H19C17.8954 33 17 32.1046 17 31V17C17 15.8954 17.8954 15 19 15H26V17C26 18.6569 27.3431 20 29 20H31ZM30.8891 18C30.7909 17.7176 30.6296 17.4581 30.4142 17.2426L28.7574 15.5858C28.5419 15.3704 28.2824 15.2091 28 15.1109V17C28 17.5523 28.4477 18 29 18H30.8891Z" fill="#777E91"/>
<path d="M23.6172 21.0759C23.4993 21.1247 23.3888 21.197 23.2929 21.2929L20.2929 24.2929C19.9024 24.6834 19.9024 25.3166 20.2929 25.7071C20.6834 26.0976 21.3166 26.0976 21.7071 25.7071L23 24.4142V29C23 29.5523 23.4477 30 24 30C24.5523 30 25 29.5523 25 29V24.4142L26.2929 25.7071C26.6834 26.0976 27.3166 26.0976 27.7071 25.7071C28.0976 25.3166 28.0976 24.6834 27.7071 24.2929L24.7071 21.2929C24.4125 20.9982 23.9797 20.9259 23.6172 21.0759Z" fill="#777E91"/>
</svg>
