<svg width="48" height="48" viewBox="0 0 48 48" fill="none" xmlns="http://www.w3.org/2000/svg">
<rect width="48" height="48" rx="24" fill="#E6E8EC"/>
<path fill-rule="evenodd" clip-rule="evenodd" d="M29.7424 20H18.258C17.1043 20 16.1899 20.9734 16.2619 22.1248L16.7619 30.1248C16.8277 31.1788 17.7018 32 18.758 32H29.2424C30.2985 32 31.1726 31.1788 31.2385 30.1248L31.7385 22.1248C31.8104 20.9734 30.896 20 29.7424 20ZM18.258 18C15.9507 18 14.1218 19.9467 14.2658 22.2495L14.7658 30.2495C14.8975 32.3577 16.6457 34 18.758 34H29.2424C31.3546 34 33.1028 32.3577 33.2346 30.2495L33.7346 22.2495C33.8785 19.9467 32.0496 18 29.7424 18H18.258Z" fill="#777E91"/>
<path fill-rule="evenodd" clip-rule="evenodd" d="M19 19C19 16.2386 21.2386 14 24 14C26.7614 14 29 16.2386 29 19V21C29 21.5523 28.5523 22 28 22C27.4477 22 27 21.5523 27 21V19C27 17.3431 25.6569 16 24 16C22.3431 16 21 17.3431 21 19V21C21 21.5523 20.5523 22 20 22C19.4477 22 19 21.5523 19 21V19Z" fill="#777E91"/>
</svg>
