<svg width="14" height="14" viewBox="0 0 14 14" fill="none" xmlns="http://www.w3.org/2000/svg">
<path fill-rule="evenodd" clip-rule="evenodd" d="M7.20036 13.6668C10.8823 13.6668 13.867 10.6821 13.867 7.00016C13.867 3.31826 10.8823 0.333496 7.20036 0.333496C3.51846 0.333496 0.533691 3.31826 0.533691 7.00016C0.533691 10.6821 3.51846 13.6668 7.20036 13.6668ZM11.4136 10.2706C12.1156 9.36752 12.5337 8.23266 12.5337 7.00016C12.5337 4.28042 10.4979 2.03616 7.86702 1.70809V4.41751C9.01718 4.71354 9.86703 5.7576 9.86703 7.00016C9.86703 7.49473 9.73239 7.95785 9.49778 8.35487L11.4136 10.2706ZM10.4707 11.2134L8.55494 9.29765C8.15795 9.53222 7.69487 9.66683 7.20036 9.66683C6.70584 9.66683 6.24277 9.53222 5.84578 9.29765L3.92999 11.2134C4.8331 11.9155 5.96791 12.3335 7.20036 12.3335C8.43281 12.3335 9.56762 11.9155 10.4707 11.2134ZM4.53369 7.00016C4.53369 7.49473 4.66833 7.95785 4.90294 8.35487L2.98716 10.2706C2.2851 9.36752 1.86702 8.23266 1.86702 7.00016C1.86702 4.28042 3.90282 2.03616 6.53369 1.70809V4.41751C5.38354 4.71354 4.53369 5.7576 4.53369 7.00016ZM7.20036 8.3335C7.93674 8.3335 8.53369 7.73654 8.53369 7.00016C8.53369 6.26378 7.93674 5.66683 7.20036 5.66683C6.46398 5.66683 5.86702 6.26378 5.86702 7.00016C5.86702 7.73654 6.46398 8.3335 7.20036 8.3335Z" fill="#FCFCFD"/>
</svg>
