<svg width="15" height="14" viewBox="0 0 15 14" fill="none" xmlns="http://www.w3.org/2000/svg">
<path fill-rule="evenodd" clip-rule="evenodd" d="M7.60026 13.6668C11.2822 13.6668 14.2669 10.6821 14.2669 7.00016C14.2669 3.31826 11.2822 0.333496 7.60026 0.333496C3.91836 0.333496 0.933594 3.31826 0.933594 7.00016C0.933594 10.6821 3.91836 13.6668 7.60026 13.6668ZM11.8135 10.2706C12.5155 9.36752 12.9336 8.23266 12.9336 7.00016C12.9336 4.28042 10.8978 2.03616 8.26693 1.70809V4.41751C9.41708 4.71354 10.2669 5.7576 10.2669 7.00016C10.2669 7.49473 10.1323 7.95785 9.89768 8.35487L11.8135 10.2706ZM10.8706 11.2134L8.95484 9.29765C8.55785 9.53222 8.09477 9.66683 7.60026 9.66683C7.10575 9.66683 6.64267 9.53222 6.24568 9.29765L4.32989 11.2134C5.233 11.9155 6.36781 12.3335 7.60026 12.3335C8.83271 12.3335 9.96752 11.9155 10.8706 11.2134ZM4.93359 7.00016C4.93359 7.49473 5.06823 7.95785 5.30284 8.35487L3.38707 10.2706C2.685 9.36752 2.26693 8.23266 2.26693 7.00016C2.26693 4.28042 4.30272 2.03616 6.93359 1.70809V4.41751C5.78344 4.71354 4.93359 5.7576 4.93359 7.00016ZM7.60026 8.3335C8.33664 8.3335 8.93359 7.73654 8.93359 7.00016C8.93359 6.26378 8.33664 5.66683 7.60026 5.66683C6.86388 5.66683 6.26693 6.26378 6.26693 7.00016C6.26693 7.73654 6.86388 8.3335 7.60026 8.3335Z" fill="#FCFCFD"/>
</svg>
